<?xml version="1.0" encoding="UTF-8" standalone="no"?>
<!-- Created with Inkscape (http://www.inkscape.org/) -->

<svg
   xmlns:dc="http://purl.org/dc/elements/1.1/"
   xmlns:cc="http://creativecommons.org/ns#"
   xmlns:rdf="http://www.w3.org/1999/02/22-rdf-syntax-ns#"
   xmlns:svg="http://www.w3.org/2000/svg"
   xmlns="http://www.w3.org/2000/svg"
   xmlns:sodipodi="http://sodipodi.sourceforge.net/DTD/sodipodi-0.dtd"
   xmlns:inkscape="http://www.inkscape.org/namespaces/inkscape"
   width="2000"
   height="2000"
   id="svg2"
   version="1.1"
   inkscape:version="0.48.0 r9654"
   sodipodi:docname="sigil.svg">
  <defs
     id="defs4" />
  <sodipodi:namedview
     id="base"
     pagecolor="#ffffff"
     bordercolor="#666666"
     borderopacity="1.0"
     inkscape:pageopacity="0.0"
     inkscape:pageshadow="2"
     inkscape:zoom="0.4595"
     inkscape:cx="1000"
     inkscape:cy="1000"
     inkscape:document-units="px"
     inkscape:current-layer="layer1"
     showgrid="false"
     inkscape:object-nodes="false"
     inkscape:object-paths="false"
     inkscape:window-width="1920"
     inkscape:window-height="1138"
     inkscape:window-x="-8"
     inkscape:window-y="-8"
     inkscape:window-maximized="1"
     fit-margin-top="0"
     fit-margin-left="0"
     fit-margin-right="0"
     fit-margin-bottom="0" />
  <metadata
     id="metadata7">
    <rdf:RDF>
      <cc:Work
         rdf:about="">
        <dc:format>image/svg+xml</dc:format>
        <dc:type
           rdf:resource="http://purl.org/dc/dcmitype/StillImage" />
        <dc:title></dc:title>
      </cc:Work>
    </rdf:RDF>
  </metadata>
  <g
     inkscape:label="Layer 1"
     inkscape:groupmode="layer"
     id="layer1"
     transform="translate(-51.40625,1137.5937)">
    <path
       style="font-size:medium;font-style:normal;font-variant:normal;font-weight:normal;font-stretch:normal;text-indent:0;text-align:start;text-decoration:none;line-height:normal;letter-spacing:normal;word-spacing:normal;text-transform:none;direction:ltr;block-progression:tb;writing-mode:lr-tb;text-anchor:start;baseline-shift:baseline;color:#000000;fill:#000000;fill-opacity:1;stroke:none;stroke-width:29.77900314;marker:none;visibility:visible;display:inline;overflow:visible;enable-background:accumulate;font-family:Sans;-inkscape-font-specification:Sans"
       d="m 1051.4063,-1137.5937 c -551.72765,0 -1000.00005,448.27235 -1000.00005,999.99995 0,551.7276 448.2724,1000 1000.00005,1000 551.7276,0 1000,-448.2724 1000,-1000 0,-551.7276 -448.2724,-999.99995 -1000,-999.99995 z m -0.7671,92.051 c 0.256,-2e-4 0.511,0 0.7671,0 3.2465,0 6.446,0.062 9.6845,0.096 l 236.2643,392.55918 -42.4778,116.59794 -204.2381,-509.25302 z m -59.06612,2.0136 -226.57972,565.15484 -104.51625,1.05474 321.60323,-565.53838 c 3.16128,-0.238 6.32245,-0.4655 9.49274,-0.6712 z m 124.46062,0.2876 c 348.9205,24.4699 642.9755,245.50089 772.4614,553.26498 l -436.6669,4.50666 -103.7492,-172.308 26.4646,-72.58606 0.096,0 c 20.1109,-48.25317 42.4317,-75.64606 59.5456,-87.25669 17.1138,-11.6106 25.752,-10.09217 34.615,-3.73957 8.863,6.3526 18.6528,22.92746 20.6156,49.18977 1.8168,24.31083 -2.9824,55.99366 -18.2185,91.47569 -32.1593,7.07423 -56.573,36.03526 -56.573,70.18888 0,39.38212 32.4369,71.72309 71.819,71.72309 39.3821,0 71.8189,-32.34097 71.8189,-71.72309 0,-27.89057 -16.3178,-52.28691 -39.7928,-64.14802 14.0344,-36.75058 19.1028,-71.07552 16.876,-100.87258 -2.669,-35.71345 -15.5713,-65.93725 -39.697,-83.22945 -12.0629,-8.64612 -26.7665,-12.69743 -41.9983,-12.17757 -15.2318,0.51982 -31.0271,5.59097 -45.2584,15.24594 -28.4625,19.30991 -54.0417,54.11754 -76.3257,107.5846 l -0.1917,0.47946 -0.1917,0.57531 -14.0953,38.64223 -201.5533,-334.83558 z m -190.33462,6.4244 -318.53486,560.07289 -400.03834,4.12315 c 118.33634,-298.4648 390.24446,-518.85303 718.5732,-564.19604 z m 95.88652,42.19006 205.1011,511.45846 -411.83236,4.219 206.73126,-515.67746 z m 464.8576,358.32775 c 14.508,0 25.7934,11.2854 25.7934,25.79345 0,14.50809 -11.2854,25.6976 -25.7934,25.6976 -14.5081,0 -25.7935,-11.18951 -25.7935,-25.6976 0,-14.50805 11.2854,-25.79345 25.7935,-25.79345 z m -158.5963,34.03971 70.6684,117.36503 -113.9132,1.15063 43.2448,-118.51566 z m 578.0037,156.5826 c 34.6137,96.16866 53.5047,199.88886 53.5047,308.08323 0,76.025343 -9.3981,149.803914 -26.9442,220.347114 -3.7749,-0.392571 -7.5367,-0.664657 -11.2187,-0.767085 -38.9273,-1.0832 -72.9357,13.943828 -100.7767,36.916281 -1.064,0.87795 -2.1119,1.78703 -3.1642,2.68483 l -112.2831,-186.595083 43.2448,-31.067228 57.8196,-41.518829 -71.1478,-0.19171 -73.9285,-0.19172 -63.4768,-105.47511 308.3709,-202.22457 z m -87.5444,2.39717 -244.6064,160.32217 -94.3522,-156.77437 338.9586,-3.5478 z m -392.2715,4.12312 109.2147,181.4172 -133.474,87.54434 -107.3928,-267.61914 131.6521,-1.3424 z m -207.4024,2.10948 -108.5435,297.72752 -411.35298,-1.05477 -15.43774,-10.35575 112.95428,-282.00208 422.37984,-4.31492 z m -472.14502,4.89023 -102.31086,255.24977 -111.89951,-74.98323 101.83143,-179.11591 112.37894,-1.15063 z m -165.59594,1.72594 -86.96903,152.84303 -223.51137,-149.67877 310.4804,-3.16426 z m -390.83325,4.79435 281.04325,188.22511 -54.75118,96.27003 -83.32534,-0.19171 c -10.26714,-28.13283 -37.43751,-48.42266 -68.94237,-48.42266 -40.18883,0 -73.16137,32.97254 -73.16137,73.16137 0,40.188829 32.97254,73.353143 73.16137,73.353143 32.79197,0 60.86503,-22.117343 70.093,-52.066343 l 55.99769,0.191714 -176.04755,309.617396 c -45.49973,-108.24582 -70.66833,-227.180196 -70.66833,-352.09511 0,-100.72663 16.41474,-197.55363 46.60083,-288.04294 z m 1066.92881,17.83485 105.571,263.40015 -8.6298,5.65731 -194.8413,-0.47943 97.9001,-268.57803 z m 302.0423,189.56758 48.2309,80.16108 -170.0067,-0.47943 121.7758,-79.68165 z m -1049.57329,6.52028 106.24223,71.14774 -146.51455,-0.38354 40.27232,-70.7642 z m -245.37346,67.98349 c 15.31477,0 27.32763,11.82108 27.32763,27.13588 0,15.31477 -12.01286,27.327631 -27.32763,27.327631 -15.3148,0 -27.13589,-12.012861 -27.13589,-27.327631 0,-15.3148 11.82109,-27.13588 27.13589,-27.13588 z m 178.92414,48.71034 168.08897,0.383543 -127.529,318.247197 C 416.25291,211.55614 339.92974,212.18385 256.98685,232.14448 L 443.00659,-95.02015 z m 217.66229,0.575314 23.97163,0 297.53571,199.347976 -305.68606,200.40271 c -10.96102,-8.12171 -22.64268,-15.90143 -34.99857,-23.3004 -32.79714,-19.6396 -70.53897,-36.22706 -112.47483,-47.94323 L 660.66888,-94.444836 z m 107.00931,0.191715 325.63051,0.862971 -60.1209,164.828857 -9.2051,6.040829 -256.30451,-171.732657 z m 374.62841,0.958857 141.7202,0.383543 -186.4033,122.159371 44.6831,-122.542914 z m 225.2373,0.575314 15.7254,0 62.9974,157.157943 -213.0597,153.130687 -164.1576,-109.88589 2.2053,-6.23263 296.2892,-194.17011 z m 65.3946,0.191714 202.0328,0.479457 8.7257,14.478858 -158.9798,114.296657 -51.7787,-129.254972 z m 234.5383,54.5594 116.2144,193.019486 c -21.6842,24.41323 -41.9811,51.97086 -63.8604,79.10634 a 23.015054,23.015054 0 1 0 35.7657,28.95772 c 34.8079,-43.17 64.2984,-84.17423 94.0646,-108.73526 22.5608,-18.6156 43.1593,-28.81286 70.3807,-27.04 -45.9903,151.31926 -130.2613,285.81269 -241.7298,392.17566 L 1502.3603,80.739621 1667.4768,-37.967836 z M 1463.9099,108.35494 1608.5067,468.88805 1274.0546,244.89728 1463.9099,108.35494 z m -456.995,35.28622 -119.37862,327.45229 -25.60169,70.18889 60.60023,-43.62835 311.63098,-224.08668 410.5859,275.0024 a 23.015054,23.015054 0 0 0 1.0548,0.57534 c -159.1906,137.8662 -366.9408,221.21009 -594.4002,221.21009 -241.43628,0 -460.64271,-93.95758 -623.16622,-247.29123 l 245.2776,-160.8016 c 19.72771,17.59125 35.62626,35.94694 47.27203,53.60054 16.15134,24.48357 23.23425,47.20423 23.77983,63.47683 -0.25743,-0.003 -0.50889,0 -0.76709,0 -40.30471,0 -73.44903,36.09643 -73.44903,80.0652 0,43.96883 33.14432,80.16108 73.44903,80.16108 40.30474,0 73.44903,-36.19225 73.44903,-80.16108 0,-25.21512 -10.89909,-47.80743 -27.80706,-62.51797 6.18686,-33.58763 -6.48934,-70.38917 -30.20426,-106.33809 -12.17097,-18.44977 -27.61491,-36.8238 -46.02548,-54.36763 L 1006.9149,143.64116 z m 45.9296,8.53389 140.5696,94.06463 -237.03134,170.48614 96.46174,-264.55077 z m -659.50711,109.1188 c 25.42546,0.0294 49.68389,2.08051 72.77783,5.7532 l -83.90066,209.41603 c -53.39691,-58.17246 -99.18874,-123.42417 -136.06288,-194.0742 52.3622,-14.73317 101.60943,-21.14783 147.18571,-21.09503 z m 118.51569,15.5336 c 39.83403,10.741 75.34631,26.35426 105.95454,44.68311 5.93532,3.55418 11.70114,7.18723 17.25957,10.93106 l -197.33434,129.35083 74.12023,-184.965 z m 231.94937,250.64726 c 16.48966,0 29.43714,13.94148 29.43714,31.93017 0,17.98874 -12.94748,32.12197 -29.43714,32.12197 -16.48966,0 -29.34126,-14.13323 -29.34126,-32.12197 0,-17.98869 12.8516,-31.93017 29.34126,-31.93017 z"
       id="path3763"
       inkscape:connector-curvature="0" />
  </g>
</svg>
